<?xml version="1.0" standalone="no"?>
<!DOCTYPE svg PUBLIC "-//W3C//DTD SVG 1.1//EN" "http://www.w3.org/Graphics/SVG/1.1/DTD/svg11.dtd" >
<svg xmlns="http://www.w3.org/2000/svg" xmlns:xlink="http://www.w3.org/1999/xlink" version="1.1">
<metadata>
Created by FontForge 20170924 at Sat Sep 18 08:45:36 2010
 By www-data
</metadata>
<defs>
<font id="ElectronicHighwaySign" horiz-adv-x="857" >
  <font-face 
    font-family="Electronic Highway Sign"
    font-weight="400"
    font-stretch="normal"
    units-per-em="1400"
    panose-1="0 0 4 0 0 0 0 0 0 0"
    ascent="1120"
    descent="-280"
    x-height="1120"
    cap-height="1120"
    bbox="72 -225 816 1200"
    underline-thickness="20"
    underline-position="-143"
    unicode-range="U+0020-20AC"
  />
<missing-glyph 
d="M107 0v1200h643v-1200h-643zM214 107h429v986h-429v-986z" />
    <glyph glyph-name=".notdef" 
d="M107 0v1200h643v-1200h-643zM214 107h429v986h-429v-986z" />
    <glyph glyph-name=".null" horiz-adv-x="0" 
 />
    <glyph glyph-name="nonmarkingreturn" 
 />
    <glyph glyph-name="space" unicode=" " 
 />
    <glyph glyph-name="exclam" unicode="!" 
d="M375 73v137h138v-137h-138zM375 376v138h138v-138h-138zM375 527v138h138v-138h-138zM375 679v138h138v-138h-138zM375 830v138h138v-138h-138zM375 982v138h138v-138h-138z" />
    <glyph glyph-name="quotedbl" unicode="&#x22;" 
d="M224 679v138h137v-138h-137zM527 679v138h138v-138h-138zM224 830v138h137v-138h-137zM526 830v138h139v-138h-139zM224 982v138h137v-138h-137zM526 982v138h139v-138h-139z" />
    <glyph glyph-name="numbersign" unicode="#" 
d="M223 73v137h138v-137h-138zM526 73v137h138v-137h-138zM223 224v138h138v-138h-138zM526 224v138h138v-138h-138zM72 375v138h137v-138h-137zM223 375v138h138v-138h-138zM375 375v138h137v-138h-137zM526 376v138h138v-138h-138zM678 376v138h138v-138h-138zM223 527
v138h138v-138h-138zM526 527v138h138v-138h-138zM72 678v138h137v-138h-137zM223 679v137h138v-137h-138zM375 679v137h137v-137h-137zM526 679v137h138v-137h-138zM678 679v138h138v-138h-138zM223 830v138h138v-138h-138zM526 830v138h138v-138h-138zM223 981v139h138
v-139h-138zM526 982v138h138v-138h-138z" />
    <glyph glyph-name="dollar" unicode="$" 
d="M375 73v137h137v-137h-137zM72 224v137h137v-137h-137zM223 224v138h138v-138h-138zM375 224v138h137v-138h-137zM526 224v138h138v-138h-138zM375 376v138h137v-138h-137zM678 376v138h138v-138h-138zM223 527v138h138v-138h-138zM375 527v138h137v-138h-137zM526 527
v138h138v-138h-138zM72 679v137h137v-137h-137zM375 679v137h137v-137h-137zM223 830v138h138v-138h-138zM375 830v138h137v-138h-137zM526 830v138h138v-138h-138zM678 830v138h138v-138h-138zM375 982v138h137v-138h-137z" />
    <glyph glyph-name="percent" unicode="%" 
d="M526 73v137h138v-137h-138zM678 73v137h138v-137h-138zM72 224v138h137v-138h-137zM526 224v138h138v-138h-138zM678 224v138h138v-138h-138zM223 376v138h138v-138h-138zM375 527v138h137v-138h-137zM526 679v137h138v-137h-138zM72 830v138h137v-138h-137zM223 830v138
h138v-138h-138zM678 830v138h138v-138h-138zM72 982v138h137v-138h-137zM223 982v138h138v-138h-138z" />
    <glyph glyph-name="ampersand" unicode="&#x26;" 
d="M223 73v137h138v-137h-138zM375 73v137h138v-137h-138zM678 73v137h138v-137h-138zM72 224v138h137v-138h-137zM526 224v138h138v-138h-138zM72 375v138h137v-138h-137zM375 376v138h137v-138h-137zM678 376v138h138v-138h-138zM223 527v138h138v-138h-138zM72 679v137
h137v-137h-137zM375 679v137h137v-137h-137zM72 830v138h137v-138h-137zM526 830v138h138v-138h-138zM223 982v138h138v-138h-138zM375 982v138h137v-138h-137z" />
    <glyph glyph-name="quotesingle" unicode="'" 
d="M360 679v138h137v-138h-137zM360 830v138h137v-138h-137zM360 982v138h137v-138h-137z" />
    <glyph glyph-name="parenleft" unicode="(" 
d="M527 73v137h137v-137h-137zM375 224v138h138v-138h-138zM224 376v138h137v-138h-137zM224 527v138h137v-138h-137zM224 679v138h137v-138h-137zM375 830v138h138v-138h-138zM526 982v138h138v-138h-138z" />
    <glyph glyph-name="parenright" unicode=")" 
d="M224 73v137h137v-137h-137zM375 224v138h138v-138h-138zM527 376v138h137v-138h-137zM526 527v138h138v-138h-138zM526 679v138h138v-138h-138zM375 830v138h138v-138h-138zM224 982v138h137v-138h-137z" />
    <glyph glyph-name="asterisk" unicode="*" 
d="M375 224v138h138v-138h-138zM72 376v137h137v-137h-137zM375 376v138h138v-138h-138zM678 376v138h138v-138h-138zM223 527v138h138v-138h-138zM375 527v138h137v-138h-137zM526 527v138h138v-138h-138zM72 679v137h137v-137h-137zM375 679v137h137v-137h-137zM678 679
v138h138v-138h-138zM375 830v139h137v-139h-137z" />
    <glyph glyph-name="plus" unicode="+" 
d="M375 224v138h138v-138h-138zM375 376v138h138v-138h-138zM72 527v138h138v-138h-138zM223 527v138h138v-138h-138zM375 527v138h138v-138h-138zM526 527v138h138v-138h-138zM678 527v138h138v-138h-138zM375 679v137h137v-137h-137zM375 830v139h137v-139h-137z" />
    <glyph glyph-name="comma" unicode="," 
d="M224 73v137h137v-137h-137zM224 -225v137h138v-137h-138zM224 224v138h137v-138h-137zM375 224v138h138v-138h-138zM375 73v137h138v-137h-138zM375 -77v137h138v-137h-138z" />
    <glyph glyph-name="hyphen" unicode="-" 
d="M72 527v138h138v-138h-138zM223 527v138h138v-138h-138zM375 527v138h138v-138h-138zM526 527v138h138v-138h-138zM678 527v138h138v-138h-138z" />
    <glyph glyph-name="hyphen" unicode="&#x2010;" 
d="M72 527v138h138v-138h-138zM223 527v138h138v-138h-138zM375 527v138h138v-138h-138zM526 527v138h138v-138h-138zM678 527v138h138v-138h-138z" />
    <glyph glyph-name="period" unicode="." 
d="M224 73v137h137v-137h-137zM375 73v137h138v-137h-138zM224 224v138h137v-138h-137zM375 224v138h138v-138h-138z" />
    <glyph glyph-name="slash" unicode="/" 
d="M72 224v138h138v-138h-138zM223 376v138h138v-138h-138zM375 527v138h138v-138h-138zM526 679v138h138v-138h-138zM678 831v138h138v-138h-138z" />
    <glyph glyph-name="zero" unicode="0" 
d="M223 73v137h138v-137h-138zM375 73v137h137v-137h-137zM526 73v137h138v-137h-138zM72 224v137h137v-137h-137zM678 224v138h138v-138h-138zM72 375v138h137v-138h-137zM223 375v138h138v-138h-138zM678 376v138h138v-138h-138zM72 527v138h137v-138h-137zM375 527v138
h137v-138h-137zM678 527v138h138v-138h-138zM72 678v138h137v-138h-137zM526 679v137h138v-137h-138zM678 679v138h138v-138h-138zM72 830v138h137v-138h-137zM678 830v138h138v-138h-138zM223 982v138h138v-138h-138zM375 982v138h137v-138h-137zM526 982v138h138v-138
h-138z" />
    <glyph glyph-name="one" unicode="1" 
d="M224 73v137h137v-137h-137zM375 73v137h138v-137h-138zM527 73v137h137v-137h-137zM375 224v138h138v-138h-138zM375 376v138h138v-138h-138zM375 527v138h138v-138h-138zM375 679v137h137v-137h-137zM224 830v138h137v-138h-137zM375 830v138h137v-138h-137zM375 982
v138h137v-138h-137z" />
    <glyph glyph-name="two" unicode="2" 
d="M72 73v137h137v-137h-137zM223 73v137h138v-137h-138zM375 73v137h137v-137h-137zM526 73v137h138v-137h-138zM678 73v137h138v-137h-138zM526 527v138h138v-138h-138zM678 679v138h138v-138h-138zM72 830v138h137v-138h-137zM678 830v138h138v-138h-138zM223 982v138
h138v-138h-138zM375 982v138h137v-138h-137zM526 982v138h138v-138h-138zM72 224v138h137v-138h-137zM375 527v138h137v-138h-137zM223 376v137h138v-137h-138z" />
    <glyph glyph-name="three" unicode="3" 
d="M223 73v137h138v-137h-138zM375 73v137h137v-137h-137zM526 73v137h138v-137h-138zM72 224v138h137v-138h-137zM678 224v138h138v-138h-138zM678 376v138h138v-138h-138zM375 527v138h137v-138h-137zM526 527v138h138v-138h-138zM678 679v138h138v-138h-138zM72 830v138
h137v-138h-137zM678 830v138h138v-138h-138zM223 982v138h138v-138h-138zM375 982v138h137v-138h-137zM526 982v138h138v-138h-138z" />
    <glyph glyph-name="four" unicode="4" 
d="M526 73v137h138v-137h-138zM526 224v138h138v-138h-138zM72 376v137h137v-137h-137zM223 376v137h138v-137h-138zM375 376v137h137v-137h-137zM526 376v138h138v-138h-138zM678 376v138h138v-138h-138zM72 527v138h137v-138h-137zM526 527v138h138v-138h-138zM223 679
v137h138v-137h-138zM526 679v137h138v-137h-138zM375 830v138h137v-138h-137zM526 830v138h138v-138h-138zM526 982v138h138v-138h-138z" />
    <glyph glyph-name="five" unicode="5" 
d="M223 73v137h138v-137h-138zM375 73v137h137v-137h-137zM526 73v137h138v-137h-138zM72 224v138h137v-138h-137zM678 224v138h138v-138h-138zM678 376v138h138v-138h-138zM678 527v138h138v-138h-138zM72 679v137h137v-137h-137zM223 679v137h138v-137h-138zM375 679v137
h137v-137h-137zM526 679v137h138v-137h-138zM72 830v138h137v-138h-137zM72 981v139h137v-139h-137zM223 982v138h138v-138h-138zM375 982v138h137v-138h-137zM526 982v138h138v-138h-138zM678 982v138h138v-138h-138z" />
    <glyph glyph-name="six" unicode="6" 
d="M223 73v137h138v-137h-138zM375 73v137h137v-137h-137zM526 73v137h138v-137h-138zM72 224v138h137v-138h-137zM678 224v138h138v-138h-138zM72 375v138h137v-138h-137zM678 376v138h138v-138h-138zM72 527v138h137v-138h-137zM223 527v138h138v-138h-138zM375 527v138
h137v-138h-137zM526 527v138h138v-138h-138zM72 679v137h137v-137h-137zM223 830v138h138v-138h-138zM375 982v138h137v-138h-137zM526 982v138h138v-138h-138z" />
    <glyph glyph-name="seven" unicode="7" 
d="M223 73v137h138v-137h-138zM223 224v138h138v-138h-138zM223 376v137h138v-137h-138zM375 527v138h138v-138h-138zM526 679v138h138v-138h-138zM678 831v137h138v-137h-138zM72 982v138h137v-138h-137zM223 982v138h138v-138h-138zM375 982v138h137v-138h-137zM526 982
v138h138v-138h-138zM678 982v138h138v-138h-138z" />
    <glyph glyph-name="eight" unicode="8" 
d="M223 73v137h138v-137h-138zM375 73v137h137v-137h-137zM526 73v137h138v-137h-138zM72 224v138h137v-138h-137zM678 224v138h138v-138h-138zM72 375v138h137v-138h-137zM678 376v138h138v-138h-138zM223 527v138h138v-138h-138zM375 527v138h137v-138h-137zM526 527v138
h138v-138h-138zM72 679v137h137v-137h-137zM678 679v138h138v-138h-138zM72 830v138h137v-138h-137zM678 830v138h138v-138h-138zM223 982v138h138v-138h-138zM375 982v138h137v-138h-137zM526 982v138h138v-138h-138z" />
    <glyph glyph-name="nine" unicode="9" 
d="M223 73v137h138v-137h-138zM375 73v137h138v-137h-138zM527 224v138h138v-138h-138zM679 376v138h137v-138h-137zM223 527v138h138v-138h-138zM375 527v138h138v-138h-138zM527 527v138h138v-138h-138zM679 527v138h137v-138h-137zM72 679v137h138v-137h-138zM678 679
v138h138v-138h-138zM72 830v138h138v-138h-138zM678 830v138h138v-138h-138zM223 982v138h138v-138h-138zM375 982v138h138v-138h-138zM527 982v138h138v-138h-138z" />
    <glyph glyph-name="colon" unicode=";" 
d="M224 224v138h137v-138h-137zM375 224v138h138v-138h-138zM224 376v138h137v-138h-137zM375 376v138h138v-138h-138zM224 679v137h137v-137h-137zM375 679v138h138v-138h-138zM224 830v139h137v-139h-137zM375 830v139h138v-139h-138zM375 74v137h138v-137h-138zM224 -73
v137h138v-137h-138z" />
    <glyph glyph-name="semicolon" unicode=":" 
d="M224 224v138h137v-138h-137zM375 224v138h138v-138h-138zM224 376v138h137v-138h-137zM375 376v138h138v-138h-138zM224 679v137h137v-137h-137zM375 679v138h138v-138h-138zM224 830v139h137v-139h-137zM375 830v139h138v-139h-138z" />
    <glyph glyph-name="less" unicode="&#x3c;" 
d="M527 73v137h137v-137h-137zM375 224v138h138v-138h-138zM223 376v138h138v-138h-138zM72 527v138h138v-138h-138zM223 679v138h138v-138h-138zM375 830v138h138v-138h-138zM526 982v138h138v-138h-138z" />
    <glyph glyph-name="equal" unicode="=" 
d="M72 376v137h138v-137h-138zM223 376v138h138v-138h-138zM375 376v138h138v-138h-138zM526 376v138h138v-138h-138zM678 376v138h138v-138h-138zM72 679v138h138v-138h-138zM223 679v138h138v-138h-138zM375 679v138h137v-138h-137zM526 679v138h138v-138h-138zM678 679
v138h138v-138h-138z" />
    <glyph glyph-name="greater" unicode="&#x3e;" 
d="M72 73v137h138v-137h-138zM223 224v138h138v-138h-138zM375 376v138h138v-138h-138zM527 527v138h137v-138h-137zM375 679v138h138v-138h-138zM223 830v138h138v-138h-138zM72 982v138h138v-138h-138z" />
    <glyph glyph-name="question" unicode="?" 
d="M375 73v137h138v-137h-138zM375 376v138h137v-138h-137zM526 527v138h138v-138h-138zM678 679v138h138v-138h-138zM72 830v138h138v-138h-138zM678 830v138h138v-138h-138zM223 982v138h138v-138h-138zM375 982v138h137v-138h-137zM526 982v138h138v-138h-138z" />
    <glyph glyph-name="at" unicode="@" 
d="M223 73v137h138v-137h-138zM375 73v137h137v-137h-137zM526 73v137h138v-137h-138zM72 224v137h137v-137h-137zM678 224v138h138v-138h-138zM72 375v138h137v-138h-137zM375 375v138h137v-138h-137zM526 376v138h138v-138h-138zM72 527v138h137v-138h-137zM375 527v138
h137v-138h-137zM678 527v138h138v-138h-138zM72 678v138h137v-138h-137zM375 679v137h137v-137h-137zM526 679v137h138v-137h-138zM678 679v138h138v-138h-138zM72 830v138h137v-138h-137zM678 830v138h138v-138h-138zM223 981v139h138v-139h-138zM375 982v138h137v-138
h-137zM526 982v138h138v-138h-138z" />
    <glyph glyph-name="A" unicode="A" 
d="M72 73v137h137v-137h-137zM678 73v137h138v-137h-138zM72 224v138h137v-138h-137zM678 224v138h138v-138h-138zM72 375v138h137v-138h-137zM223 375v138h138v-138h-138zM375 376v137h137v-137h-137zM526 376v138h138v-138h-138zM678 376v138h138v-138h-138zM72 527v138
h137v-138h-137zM678 527v138h138v-138h-138zM72 679v137h137v-137h-137zM678 679v138h138v-138h-138zM223 830v138h137v-138h-137zM526 832v138h138v-138h-138zM375 982v138h137v-138h-137z" />
    <glyph glyph-name="B" unicode="B" 
d="M72 73v137h137v-137h-137zM223 73v137h138v-137h-138zM375 73v137h137v-137h-137zM526 73v137h138v-137h-138zM72 224v137h137v-137h-137zM678 224v138h138v-138h-138zM72 375v138h137v-138h-137zM678 376v138h138v-138h-138zM72 527v138h137v-138h-137zM223 527v138h138
v-138h-138zM375 527v138h137v-138h-137zM526 527v138h138v-138h-138zM72 678v138h137v-138h-137zM678 679v138h138v-138h-138zM72 830v138h137v-138h-137zM678 830v138h138v-138h-138zM72 981v139h137v-139h-137zM223 982v138h138v-138h-138zM375 982v138h137v-138h-137z
M526 982v138h138v-138h-138z" />
    <glyph glyph-name="C" unicode="C" 
d="M223 73v137h138v-137h-138zM375 73v137h138v-137h-138zM526 73v137h138v-137h-138zM72 224v138h138v-138h-138zM678 224v138h138v-138h-138zM72 376v137h137v-137h-137zM72 527v138h137v-138h-137zM72 679v137h137v-137h-137zM72 830v138h137v-138h-137zM678 830v138h138
v-138h-138zM223 982v138h138v-138h-138zM375 982v138h137v-138h-137zM526 982v138h138v-138h-138z" />
    <glyph glyph-name="D" unicode="D" 
d="M72 73v137h137v-137h-137zM223 73v137h138v-137h-138zM375 73v137h137v-137h-137zM72 224v138h137v-138h-137zM526 224v138h138v-138h-138zM72 375v138h137v-138h-137zM678 376v138h138v-138h-138zM72 527v138h137v-138h-137zM678 527v138h138v-138h-138zM72 679v137h137
v-137h-137zM678 679v138h138v-138h-138zM72 830v138h137v-138h-137zM526 830v138h138v-138h-138zM72 981v139h137v-139h-137zM223 982v138h138v-138h-138zM375 982v138h137v-138h-137z" />
    <glyph glyph-name="E" unicode="E" 
d="M72 73v137h137v-137h-137zM223 73v137h138v-137h-138zM375 73v137h137v-137h-137zM526 73v137h138v-137h-138zM678 73v137h138v-137h-138zM72 224v138h137v-138h-137zM72 375v138h137v-138h-137zM72 527v138h137v-138h-137zM223 527v138h138v-138h-138zM375 527v138h137
v-138h-137zM526 527v138h138v-138h-138zM72 679v137h137v-137h-137zM72 830v138h137v-138h-137zM72 981v139h137v-139h-137zM223 982v138h138v-138h-138zM375 982v138h137v-138h-137zM526 982v138h138v-138h-138zM678 982v138h138v-138h-138z" />
    <glyph glyph-name="F" unicode="F" 
d="M72 73v137h138v-137h-138zM72 224v138h138v-138h-138zM72 376v137h137v-137h-137zM72 527v138h137v-138h-137zM223 527v138h138v-138h-138zM375 527v138h138v-138h-138zM526 527v138h138v-138h-138zM72 679v137h137v-137h-137zM72 830v138h137v-138h-137zM72 982v138h137
v-138h-137zM223 982v138h138v-138h-138zM375 982v138h138v-138h-138zM526 982v138h138v-138h-138zM678 982v138h138v-138h-138z" />
    <glyph glyph-name="G" unicode="G" 
d="M223 73v137h138v-137h-138zM375 73v137h137v-137h-137zM526 73v137h138v-137h-138zM678 73v137h138v-137h-138zM72 224v138h137v-138h-137zM678 224v138h138v-138h-138zM72 375v138h137v-138h-137zM678 376v138h138v-138h-138zM72 527v138h137v-138h-137zM375 527v138
h137v-138h-137zM526 527v138h138v-138h-138zM678 527v138h138v-138h-138zM72 679v137h137v-137h-137zM72 830v138h137v-138h-137zM678 830v138h138v-138h-138zM223 982v138h138v-138h-138zM375 982v138h137v-138h-137zM526 982v138h138v-138h-138z" />
    <glyph glyph-name="H" unicode="H" 
d="M72 73v137h137v-137h-137zM678 73v137h138v-137h-138zM72 224v138h137v-138h-137zM678 224v138h138v-138h-138zM72 375v138h137v-138h-137zM678 376v138h138v-138h-138zM72 527v138h137v-138h-137zM223 527v138h138v-138h-138zM375 527v138h137v-138h-137zM526 527v138
h138v-138h-138zM678 527v138h138v-138h-138zM72 679v137h137v-137h-137zM678 679v138h138v-138h-138zM72 830v138h137v-138h-137zM678 830v138h138v-138h-138zM72 981v139h137v-139h-137zM678 982v138h138v-138h-138z" />
    <glyph glyph-name="I" unicode="I" 
d="M224 73v137h137v-137h-137zM375 73v137h138v-137h-138zM527 73v137h137v-137h-137zM375 224v138h138v-138h-138zM375 376v138h138v-138h-138zM375 527v138h137v-138h-137zM375 679v137h137v-137h-137zM375 830v138h137v-138h-137zM224 982v138h137v-138h-137zM375 982
v138h137v-138h-137zM526 982v138h138v-138h-138z" />
    <glyph glyph-name="J" unicode="J" 
d="M223 73v137h138v-137h-138zM375 73v137h137v-137h-137zM72 224v138h137v-138h-137zM526 224v138h138v-138h-138zM526 376v138h138v-138h-138zM526 527v138h138v-138h-138zM526 679v138h138v-138h-138zM526 830v138h138v-138h-138zM375 982v138h137v-138h-137zM526 982
v138h138v-138h-138zM678 982v138h138v-138h-138z" />
    <glyph glyph-name="K" unicode="K" 
d="M72 73v137h138v-137h-138zM678 73v137h138v-137h-138zM72 224v138h138v-138h-138zM526 224v138h138v-138h-138zM72 376v137h137v-137h-137zM375 376v138h138v-138h-138zM72 527v138h137v-138h-137zM223 527v138h138v-138h-138zM72 679v137h137v-137h-137zM375 679v137
h137v-137h-137zM72 830v138h137v-138h-137zM526 830v138h138v-138h-138zM72 982v138h137v-138h-137zM678 982v138h138v-138h-138z" />
    <glyph glyph-name="L" unicode="L" 
d="M72 73v137h138v-137h-138zM223 73v137h138v-137h-138zM375 73v137h138v-137h-138zM526 73v137h138v-137h-138zM678 73v137h138v-137h-138zM72 224v138h138v-138h-138zM72 376v138h138v-138h-138zM72 527v138h138v-138h-138zM72 679v137h138v-137h-138zM72 830v138h137
v-138h-137zM72 982v138h137v-138h-137z" />
    <glyph glyph-name="M" unicode="M" 
d="M72 73v137h137v-137h-137zM678 73v137h138v-137h-138zM72 224v138h137v-138h-137zM678 224v138h138v-138h-138zM72 375v138h137v-138h-137zM678 376v138h138v-138h-138zM72 527v138h137v-138h-137zM375 527v138h137v-138h-137zM678 527v138h138v-138h-138zM72 679v137
h137v-137h-137zM375 679v137h137v-137h-137zM678 679v138h138v-138h-138zM72 830v138h137v-138h-137zM223 830v138h138v-138h-138zM526 830v138h138v-138h-138zM678 830v138h138v-138h-138zM72 981v139h137v-139h-137zM678 982v138h138v-138h-138z" />
    <glyph glyph-name="N" unicode="N" 
d="M72 73v137h137v-137h-137zM678 73v137h138v-137h-138zM72 224v138h137v-138h-137zM678 224v138h138v-138h-138zM72 375v138h137v-138h-137zM526 376v138h138v-138h-138zM678 376v138h138v-138h-138zM72 527v138h137v-138h-137zM375 527v138h137v-138h-137zM678 527v138
h138v-138h-138zM72 679v137h137v-137h-137zM223 679v137h138v-137h-138zM678 679v138h138v-138h-138zM72 830v138h137v-138h-137zM678 830v138h138v-138h-138zM72 981v139h137v-139h-137zM678 982v138h138v-138h-138z" />
    <glyph glyph-name="O" unicode="O" 
d="M223 73v137h138v-137h-138zM375 73v137h137v-137h-137zM526 73v137h138v-137h-138zM72 224v138h137v-138h-137zM678 224v138h138v-138h-138zM72 375v138h137v-138h-137zM678 376v138h138v-138h-138zM72 527v138h137v-138h-137zM678 527v138h138v-138h-138zM72 679v137
h137v-137h-137zM678 679v138h138v-138h-138zM72 830v138h137v-138h-137zM678 830v138h138v-138h-138zM223 982v138h138v-138h-138zM375 982v138h137v-138h-137zM526 982v138h138v-138h-138z" />
    <glyph glyph-name="P" unicode="P" 
d="M72 73v137h138v-137h-138zM72 224v138h137v-138h-137zM72 375v138h137v-138h-137zM72 527v138h137v-138h-137zM223 527v138h138v-138h-138zM375 527v138h138v-138h-138zM526 527v138h138v-138h-138zM72 679v137h137v-137h-137zM678 679v138h138v-138h-138zM72 830v138
h137v-138h-137zM678 830v138h138v-138h-138zM72 982v138h137v-138h-137zM223 982v138h138v-138h-138zM375 982v138h137v-138h-137zM526 982v138h138v-138h-138z" />
    <glyph glyph-name="Q" unicode="Q" 
d="M223 73v137h138v-137h-138zM375 73v137h137v-137h-137zM678 73v137h138v-137h-138zM72 224v138h137v-138h-137zM526 224v138h138v-138h-138zM72 375v138h137v-138h-137zM375 376v137h137v-137h-137zM678 376v138h138v-138h-138zM72 527v138h137v-138h-137zM678 527v138
h138v-138h-138zM72 679v137h137v-137h-137zM678 679v138h138v-138h-138zM72 830v138h137v-138h-137zM678 830v138h138v-138h-138zM223 982v138h138v-138h-138zM375 982v138h137v-138h-137zM526 982v138h138v-138h-138z" />
    <glyph glyph-name="R" unicode="R" 
d="M72 73v137h137v-137h-137zM678 73v137h138v-137h-138zM72 224v138h137v-138h-137zM526 224v138h138v-138h-138zM72 375v138h137v-138h-137zM375 376v138h137v-138h-137zM72 527v138h137v-138h-137zM223 527v138h138v-138h-138zM375 527v138h137v-138h-137zM526 527v138
h138v-138h-138zM72 679v137h137v-137h-137zM678 679v138h138v-138h-138zM72 830v138h137v-138h-137zM678 830v138h138v-138h-138zM72 981v139h137v-139h-137zM223 982v138h138v-138h-138zM375 982v138h137v-138h-137zM526 982v138h138v-138h-138z" />
    <glyph glyph-name="S" unicode="S" 
d="M223 73v137h138v-137h-138zM375 73v137h137v-137h-137zM526 73v137h138v-137h-138zM72 224v138h137v-138h-137zM678 224v138h138v-138h-138zM678 376v138h138v-138h-138zM223 527v138h138v-138h-138zM375 527v138h137v-138h-137zM526 527v138h138v-138h-138zM72 679v137
h137v-137h-137zM72 830v138h137v-138h-137zM678 830v138h138v-138h-138zM223 982v138h138v-138h-138zM375 982v138h137v-138h-137zM526 982v138h138v-138h-138z" />
    <glyph glyph-name="T" unicode="T" 
d="M375 73v137h138v-137h-138zM375 224v138h138v-138h-138zM375 376v138h138v-138h-138zM375 527v138h137v-138h-137zM375 679v137h137v-137h-137zM375 830v138h137v-138h-137zM72 982v138h137v-138h-137zM223 982v138h138v-138h-138zM375 982v138h137v-138h-137zM526 982
v138h138v-138h-138zM678 982v138h138v-138h-138z" />
    <glyph glyph-name="U" unicode="U" 
d="M223 73v137h138v-137h-138zM375 73v137h137v-137h-137zM526 73v137h138v-137h-138zM72 224v138h137v-138h-137zM678 224v138h138v-138h-138zM72 375v138h137v-138h-137zM678 376v138h138v-138h-138zM72 527v138h137v-138h-137zM678 527v138h138v-138h-138zM72 679v137
h137v-137h-137zM678 679v138h138v-138h-138zM72 830v138h137v-138h-137zM678 830v138h138v-138h-138zM72 982v138h137v-138h-137zM678 982v138h138v-138h-138z" />
    <glyph glyph-name="V" unicode="V" 
d="M375 73v137h137v-137h-137zM72 679v137h137v-137h-137zM678 679v138h138v-138h-138zM72 830v138h137v-138h-137zM678 830v138h138v-138h-138zM72 982v138h137v-138h-137zM678 982v138h138v-138h-138zM223 375v138h138v-138h-138zM526 376v138h138v-138h-138zM223 527v138
h138v-138h-138zM526 527v138h138v-138h-138zM375 224v138h138v-138h-138z" />
    <glyph glyph-name="W" unicode="W" 
d="M223 73v137h138v-137h-138zM526 73v137h138v-137h-138zM72 224v138h137v-138h-137zM375 224v138h137v-138h-137zM678 224v138h138v-138h-138zM72 375v138h137v-138h-137zM375 376v137h137v-137h-137zM678 376v138h138v-138h-138zM72 527v138h137v-138h-137zM375 527v138
h137v-138h-137zM678 527v138h138v-138h-138zM72 679v137h137v-137h-137zM678 679v138h138v-138h-138zM72 830v138h137v-138h-137zM678 830v138h138v-138h-138zM72 981v139h137v-139h-137zM678 982v138h138v-138h-138z" />
    <glyph glyph-name="X" unicode="X" 
d="M72 73v137h137v-137h-137zM678 73v137h138v-137h-138zM72 224v138h137v-138h-137zM678 224v138h138v-138h-138zM223 376v138h138v-138h-138zM526 376v138h138v-138h-138zM375 527v138h137v-138h-137zM223 679v137h138v-137h-138zM526 679v137h138v-137h-138zM72 830v138
h137v-138h-137zM678 830v138h138v-138h-138zM72 982v138h137v-138h-137zM678 982v138h138v-138h-138z" />
    <glyph glyph-name="Y" unicode="Y" 
d="M375 73v137h138v-137h-138zM375 224v138h137v-138h-137zM375 376v138h137v-138h-137zM223 527v138h138v-138h-138zM526 527v138h138v-138h-138zM72 679v137h138v-137h-138zM678 679v138h138v-138h-138zM72 830v138h137v-138h-137zM678 830v138h138v-138h-138zM72 982v138
h137v-138h-137zM678 982v138h138v-138h-138z" />
    <glyph glyph-name="Z" unicode="Z" 
d="M72 73v137h137v-137h-137zM223 73v137h138v-137h-138zM375 73v137h137v-137h-137zM526 73v137h138v-137h-138zM678 73v137h138v-137h-138zM72 224v138h137v-138h-137zM223 375v138h138v-138h-138zM375 527v138h137v-138h-137zM526 679v138h138v-138h-138zM678 830v138
h138v-138h-138zM72 982v138h137v-138h-137zM223 982v138h138v-138h-138zM375 982v138h137v-138h-137zM526 982v138h138v-138h-138zM678 982v138h138v-138h-138z" />
    <glyph glyph-name="bracketleft" unicode="[" 
d="M224 73v137h137v-137h-137zM375 73v137h138v-137h-138zM527 73v137h137v-137h-137zM224 224v138h137v-138h-137zM224 376v138h137v-138h-137zM224 527v138h137v-138h-137zM224 679v137h137v-137h-137zM224 830v138h137v-138h-137zM224 982v138h137v-138h-137zM375 982
v138h138v-138h-138zM526 982v138h138v-138h-138z" />
    <glyph glyph-name="backslash" unicode="\" 
d="M678 224v138h138v-138h-138zM526 376v138h138v-138h-138zM375 527v138h138v-138h-138zM223 679v138h138v-138h-138zM72 830v139h138v-139h-138z" />
    <glyph glyph-name="bracketright" unicode="]" 
d="M224 73v137h137v-137h-137zM375 73v137h137v-137h-137zM527 73v137h137v-137h-137zM526 224v138h138v-138h-138zM526 376v138h138v-138h-138zM526 527v138h138v-138h-138zM526 679v138h138v-138h-138zM526 830v138h138v-138h-138zM224 982v138h137v-138h-137zM375 982
v138h137v-138h-137zM526 982v138h138v-138h-138z" />
    <glyph glyph-name="asciicircum" unicode="^" 
d="M72 679v138h138v-138h-138zM678 679v138h138v-138h-138zM223 830v138h138v-138h-138zM526 830v138h138v-138h-138zM375 982v138h138v-138h-138z" />
    <glyph glyph-name="underscore" unicode="_" 
d="M72 73v137h138v-137h-138zM223 73v137h138v-137h-138zM375 73v137h138v-137h-138zM526 73v137h138v-137h-138zM678 73v137h138v-137h-138z" />
    <glyph glyph-name="grave" unicode="`" horiz-adv-x="585" 
d="M375 678v138h138v-138h-138zM223 830v138h138v-138h-138zM72 981v139h138v-139h-138z" />
    <glyph glyph-name="a" unicode="a" 
d="M72 73v137h137v-137h-137zM678 73v137h138v-137h-138zM72 224v138h137v-138h-137zM678 224v138h138v-138h-138zM72 375v138h137v-138h-137zM223 375v138h138v-138h-138zM375 376v137h137v-137h-137zM526 376v138h138v-138h-138zM678 376v138h138v-138h-138zM72 527v138
h137v-138h-137zM678 527v138h138v-138h-138zM72 679v137h137v-137h-137zM678 679v138h138v-138h-138zM223 830v138h137v-138h-137zM526 832v138h138v-138h-138zM375 982v138h137v-138h-137z" />
    <glyph glyph-name="b" unicode="b" 
d="M72 73v137h137v-137h-137zM223 73v137h138v-137h-138zM375 73v137h137v-137h-137zM526 73v137h138v-137h-138zM72 224v137h137v-137h-137zM678 224v138h138v-138h-138zM72 375v138h137v-138h-137zM678 376v138h138v-138h-138zM72 527v138h137v-138h-137zM223 527v138h138
v-138h-138zM375 527v138h137v-138h-137zM526 527v138h138v-138h-138zM72 678v138h137v-138h-137zM678 679v138h138v-138h-138zM72 830v138h137v-138h-137zM678 830v138h138v-138h-138zM72 981v139h137v-139h-137zM223 982v138h138v-138h-138zM375 982v138h137v-138h-137z
M526 982v138h138v-138h-138z" />
    <glyph glyph-name="c" unicode="c" 
d="M223 73v137h138v-137h-138zM375 73v137h138v-137h-138zM526 73v137h138v-137h-138zM72 224v138h138v-138h-138zM678 224v138h138v-138h-138zM72 376v137h137v-137h-137zM72 527v138h137v-138h-137zM72 679v137h137v-137h-137zM72 830v138h137v-138h-137zM678 830v138h138
v-138h-138zM223 982v138h138v-138h-138zM375 982v138h137v-138h-137zM526 982v138h138v-138h-138z" />
    <glyph glyph-name="d" unicode="d" 
d="M72 73v137h137v-137h-137zM223 73v137h138v-137h-138zM375 73v137h137v-137h-137zM72 224v138h137v-138h-137zM526 224v138h138v-138h-138zM72 375v138h137v-138h-137zM678 376v138h138v-138h-138zM72 527v138h137v-138h-137zM678 527v138h138v-138h-138zM72 679v137h137
v-137h-137zM678 679v138h138v-138h-138zM72 830v138h137v-138h-137zM526 830v138h138v-138h-138zM72 981v139h137v-139h-137zM223 982v138h138v-138h-138zM375 982v138h137v-138h-137z" />
    <glyph glyph-name="e" unicode="e" 
d="M72 73v137h137v-137h-137zM223 73v137h138v-137h-138zM375 73v137h137v-137h-137zM526 73v137h138v-137h-138zM678 73v137h138v-137h-138zM72 224v138h137v-138h-137zM72 375v138h137v-138h-137zM72 527v138h137v-138h-137zM223 527v138h138v-138h-138zM375 527v138h137
v-138h-137zM526 527v138h138v-138h-138zM72 679v137h137v-137h-137zM72 830v138h137v-138h-137zM72 981v139h137v-139h-137zM223 982v138h138v-138h-138zM375 982v138h137v-138h-137zM526 982v138h138v-138h-138zM678 982v138h138v-138h-138z" />
    <glyph glyph-name="f" unicode="f" 
d="M72 73v137h138v-137h-138zM72 224v138h138v-138h-138zM72 376v137h137v-137h-137zM72 527v138h137v-138h-137zM223 527v138h138v-138h-138zM375 527v138h138v-138h-138zM526 527v138h138v-138h-138zM72 679v137h137v-137h-137zM72 830v138h137v-138h-137zM72 982v138h137
v-138h-137zM223 982v138h138v-138h-138zM375 982v138h138v-138h-138zM526 982v138h138v-138h-138zM678 982v138h138v-138h-138z" />
    <glyph glyph-name="g" unicode="g" 
d="M223 73v137h138v-137h-138zM375 73v137h137v-137h-137zM526 73v137h138v-137h-138zM678 73v137h138v-137h-138zM72 224v138h137v-138h-137zM678 224v138h138v-138h-138zM72 375v138h137v-138h-137zM678 376v138h138v-138h-138zM72 527v138h137v-138h-137zM375 527v138
h137v-138h-137zM526 527v138h138v-138h-138zM678 527v138h138v-138h-138zM72 679v137h137v-137h-137zM72 830v138h137v-138h-137zM678 830v138h138v-138h-138zM223 982v138h138v-138h-138zM375 982v138h137v-138h-137zM526 982v138h138v-138h-138z" />
    <glyph glyph-name="h" unicode="h" 
d="M72 73v137h137v-137h-137zM678 73v137h138v-137h-138zM72 224v138h137v-138h-137zM678 224v138h138v-138h-138zM72 375v138h137v-138h-137zM678 376v138h138v-138h-138zM72 527v138h137v-138h-137zM223 527v138h138v-138h-138zM375 527v138h137v-138h-137zM526 527v138
h138v-138h-138zM678 527v138h138v-138h-138zM72 679v137h137v-137h-137zM678 679v138h138v-138h-138zM72 830v138h137v-138h-137zM678 830v138h138v-138h-138zM72 981v139h137v-139h-137zM678 982v138h138v-138h-138z" />
    <glyph glyph-name="i" unicode="i" 
d="M224 73v137h137v-137h-137zM375 73v137h138v-137h-138zM527 73v137h137v-137h-137zM375 224v138h138v-138h-138zM375 376v138h138v-138h-138zM375 527v138h137v-138h-137zM375 679v137h137v-137h-137zM375 830v138h137v-138h-137zM224 982v138h137v-138h-137zM375 982
v138h137v-138h-137zM526 982v138h138v-138h-138z" />
    <glyph glyph-name="j" unicode="j" 
d="M223 73v137h138v-137h-138zM375 73v137h137v-137h-137zM72 224v138h137v-138h-137zM526 224v138h138v-138h-138zM526 376v138h138v-138h-138zM526 527v138h138v-138h-138zM526 679v138h138v-138h-138zM526 830v138h138v-138h-138zM375 982v138h137v-138h-137zM526 982
v138h138v-138h-138zM678 982v138h138v-138h-138z" />
    <glyph glyph-name="k" unicode="k" 
d="M72 73v137h138v-137h-138zM678 73v137h138v-137h-138zM72 224v138h138v-138h-138zM526 224v138h138v-138h-138zM72 376v137h137v-137h-137zM375 376v138h138v-138h-138zM72 527v138h137v-138h-137zM223 527v138h138v-138h-138zM72 679v137h137v-137h-137zM375 679v137
h137v-137h-137zM72 830v138h137v-138h-137zM526 830v138h138v-138h-138zM72 982v138h137v-138h-137zM678 982v138h138v-138h-138z" />
    <glyph glyph-name="l" unicode="l" 
d="M72 73v137h138v-137h-138zM223 73v137h138v-137h-138zM375 73v137h138v-137h-138zM526 73v137h138v-137h-138zM678 73v137h138v-137h-138zM72 224v138h138v-138h-138zM72 376v138h138v-138h-138zM72 527v138h138v-138h-138zM72 679v137h138v-137h-138zM72 830v138h137
v-138h-137zM72 982v138h137v-138h-137z" />
    <glyph glyph-name="m" unicode="m" 
d="M72 73v137h137v-137h-137zM678 73v137h138v-137h-138zM72 224v138h137v-138h-137zM678 224v138h138v-138h-138zM72 375v138h137v-138h-137zM678 376v138h138v-138h-138zM72 527v138h137v-138h-137zM375 527v138h137v-138h-137zM678 527v138h138v-138h-138zM72 679v137
h137v-137h-137zM375 679v137h137v-137h-137zM678 679v138h138v-138h-138zM72 830v138h137v-138h-137zM223 830v138h138v-138h-138zM526 830v138h138v-138h-138zM678 830v138h138v-138h-138zM72 981v139h137v-139h-137zM678 982v138h138v-138h-138z" />
    <glyph glyph-name="n" unicode="n" 
d="M72 73v137h137v-137h-137zM678 73v137h138v-137h-138zM72 224v138h137v-138h-137zM678 224v138h138v-138h-138zM72 375v138h137v-138h-137zM526 376v138h138v-138h-138zM678 376v138h138v-138h-138zM72 527v138h137v-138h-137zM375 527v138h137v-138h-137zM678 527v138
h138v-138h-138zM72 679v137h137v-137h-137zM223 679v137h138v-137h-138zM678 679v138h138v-138h-138zM72 830v138h137v-138h-137zM678 830v138h138v-138h-138zM72 981v139h137v-139h-137zM678 982v138h138v-138h-138z" />
    <glyph glyph-name="o" unicode="o" 
d="M223 73v137h138v-137h-138zM375 73v137h137v-137h-137zM526 73v137h138v-137h-138zM72 224v138h137v-138h-137zM678 224v138h138v-138h-138zM72 375v138h137v-138h-137zM678 376v138h138v-138h-138zM72 527v138h137v-138h-137zM678 527v138h138v-138h-138zM72 679v137
h137v-137h-137zM678 679v138h138v-138h-138zM72 830v138h137v-138h-137zM678 830v138h138v-138h-138zM223 982v138h138v-138h-138zM375 982v138h137v-138h-137zM526 982v138h138v-138h-138z" />
    <glyph glyph-name="p" unicode="p" 
d="M72 73v137h138v-137h-138zM72 224v138h137v-138h-137zM72 375v138h137v-138h-137zM72 527v138h137v-138h-137zM223 527v138h138v-138h-138zM375 527v138h138v-138h-138zM526 527v138h138v-138h-138zM72 679v137h137v-137h-137zM678 679v138h138v-138h-138zM72 830v138
h137v-138h-137zM678 830v138h138v-138h-138zM72 982v138h137v-138h-137zM223 982v138h138v-138h-138zM375 982v138h137v-138h-137zM526 982v138h138v-138h-138z" />
    <glyph glyph-name="q" unicode="q" 
d="M223 73v137h138v-137h-138zM375 73v137h137v-137h-137zM678 73v137h138v-137h-138zM72 224v138h137v-138h-137zM526 224v138h138v-138h-138zM72 375v138h137v-138h-137zM375 376v137h137v-137h-137zM678 376v138h138v-138h-138zM72 527v138h137v-138h-137zM678 527v138
h138v-138h-138zM72 679v137h137v-137h-137zM678 679v138h138v-138h-138zM72 830v138h137v-138h-137zM678 830v138h138v-138h-138zM223 982v138h138v-138h-138zM375 982v138h137v-138h-137zM526 982v138h138v-138h-138z" />
    <glyph glyph-name="r" unicode="r" 
d="M72 73v137h137v-137h-137zM678 73v137h138v-137h-138zM72 224v138h137v-138h-137zM526 224v138h138v-138h-138zM72 375v138h137v-138h-137zM375 376v138h137v-138h-137zM72 527v138h137v-138h-137zM223 527v138h138v-138h-138zM375 527v138h137v-138h-137zM526 527v138
h138v-138h-138zM72 679v137h137v-137h-137zM678 679v138h138v-138h-138zM72 830v138h137v-138h-137zM678 830v138h138v-138h-138zM72 981v139h137v-139h-137zM223 982v138h138v-138h-138zM375 982v138h137v-138h-137zM526 982v138h138v-138h-138z" />
    <glyph glyph-name="s" unicode="s" 
d="M223 73v137h138v-137h-138zM375 73v137h137v-137h-137zM526 73v137h138v-137h-138zM72 224v138h137v-138h-137zM678 224v138h138v-138h-138zM678 376v138h138v-138h-138zM223 527v138h138v-138h-138zM375 527v138h137v-138h-137zM526 527v138h138v-138h-138zM72 679v137
h137v-137h-137zM72 830v138h137v-138h-137zM678 830v138h138v-138h-138zM223 982v138h138v-138h-138zM375 982v138h137v-138h-137zM526 982v138h138v-138h-138z" />
    <glyph glyph-name="t" unicode="t" 
d="M375 73v137h138v-137h-138zM375 224v138h138v-138h-138zM375 376v138h138v-138h-138zM375 527v138h137v-138h-137zM375 679v137h137v-137h-137zM375 830v138h137v-138h-137zM72 982v138h137v-138h-137zM223 982v138h138v-138h-138zM375 982v138h137v-138h-137zM526 982
v138h138v-138h-138zM678 982v138h138v-138h-138z" />
    <glyph glyph-name="u" unicode="u" 
d="M223 73v137h138v-137h-138zM375 73v137h137v-137h-137zM526 73v137h138v-137h-138zM72 224v138h137v-138h-137zM678 224v138h138v-138h-138zM72 375v138h137v-138h-137zM678 376v138h138v-138h-138zM72 527v138h137v-138h-137zM678 527v138h138v-138h-138zM72 679v137
h137v-137h-137zM678 679v138h138v-138h-138zM72 830v138h137v-138h-137zM678 830v138h138v-138h-138zM72 982v138h137v-138h-137zM678 982v138h138v-138h-138z" />
    <glyph glyph-name="v" unicode="v" 
d="M375 73v137h137v-137h-137zM72 679v137h137v-137h-137zM678 679v138h138v-138h-138zM72 830v138h137v-138h-137zM678 830v138h138v-138h-138zM72 982v138h137v-138h-137zM678 982v138h138v-138h-138zM223 375v138h138v-138h-138zM526 376v138h138v-138h-138zM223 527v138
h138v-138h-138zM526 527v138h138v-138h-138zM375 224v138h138v-138h-138z" />
    <glyph glyph-name="w" unicode="w" 
d="M223 73v137h138v-137h-138zM526 73v137h138v-137h-138zM72 224v138h137v-138h-137zM375 224v138h137v-138h-137zM678 224v138h138v-138h-138zM72 375v138h137v-138h-137zM375 376v137h137v-137h-137zM678 376v138h138v-138h-138zM72 527v138h137v-138h-137zM375 527v138
h137v-138h-137zM678 527v138h138v-138h-138zM72 679v137h137v-137h-137zM678 679v138h138v-138h-138zM72 830v138h137v-138h-137zM678 830v138h138v-138h-138zM72 981v139h137v-139h-137zM678 982v138h138v-138h-138z" />
    <glyph glyph-name="x" unicode="x" 
d="M72 73v137h137v-137h-137zM678 73v137h138v-137h-138zM72 224v138h137v-138h-137zM678 224v138h138v-138h-138zM223 376v138h138v-138h-138zM526 376v138h138v-138h-138zM375 527v138h137v-138h-137zM223 679v137h138v-137h-138zM526 679v137h138v-137h-138zM72 830v138
h137v-138h-137zM678 830v138h138v-138h-138zM72 982v138h137v-138h-137zM678 982v138h138v-138h-138z" />
    <glyph glyph-name="y" unicode="y" 
d="M375 73v137h138v-137h-138zM375 224v138h137v-138h-137zM375 376v138h137v-138h-137zM223 527v138h138v-138h-138zM526 527v138h138v-138h-138zM72 679v137h138v-137h-138zM678 679v138h138v-138h-138zM72 830v138h137v-138h-137zM678 830v138h138v-138h-138zM72 982v138
h137v-138h-137zM678 982v138h138v-138h-138z" />
    <glyph glyph-name="z" unicode="z" 
d="M72 73v137h137v-137h-137zM223 73v137h138v-137h-138zM375 73v137h137v-137h-137zM526 73v137h138v-137h-138zM678 73v137h138v-137h-138zM72 224v138h137v-138h-137zM223 375v138h138v-138h-138zM375 527v138h137v-138h-137zM526 679v138h138v-138h-138zM678 830v138
h138v-138h-138zM72 982v138h137v-138h-137zM223 982v138h138v-138h-138zM375 982v138h137v-138h-137zM526 982v138h138v-138h-138zM678 982v138h138v-138h-138z" />
    <glyph glyph-name="braceleft" unicode="{" 
d="M375 73v137h138v-137h-138zM527 73v137h137v-137h-137zM223 224v138h138v-138h-138zM223 376v138h138v-138h-138zM72 527v138h138v-138h-138zM223 679v137h138v-137h-138zM223 830v138h138v-138h-138zM375 982v138h138v-138h-138zM526 982v138h138v-138h-138z" />
    <glyph glyph-name="bar" unicode="|" 
d="M375 73v137h138v-137h-138zM375 224v138h138v-138h-138zM375 376v138h138v-138h-138zM375 527v138h138v-138h-138zM375 679v138h138v-138h-138zM375 830v138h137v-138h-137zM375 982v138h137v-138h-137z" />
    <glyph glyph-name="braceright" unicode="}" 
d="M224 73v137h137v-137h-137zM375 73v137h137v-137h-137zM526 224v138h138v-138h-138zM526 376v138h138v-138h-138zM678 527v138h138v-138h-138zM526 679v138h138v-138h-138zM526 830v138h138v-138h-138zM224 982v138h137v-138h-137zM375 982v138h137v-138h-137z" />
    <glyph glyph-name="asciitilde" unicode="~" 
d="M72 376v138h138v-138h-138zM375 376v138h138v-138h-138zM526 376v138h138v-138h-138zM223 527v138h138v-138h-138zM375 527v138h138v-138h-138zM678 527v138h138v-138h-138z" />
    <glyph glyph-name="exclamdown" unicode="&#xa1;" 
d="M107 0v1200h643v-1200h-643zM214 107h429v986h-429v-986z" />
    <glyph glyph-name="cent" unicode="&#xa2;" 
d="M375 73v137h138v-137h-138zM223 224v138h138v-138h-138zM375 224v138h138v-138h-138zM526 224v138h138v-138h-138zM72 375v138h137v-138h-137zM375 376v138h137v-138h-137zM678 376v138h138v-138h-138zM72 527v138h137v-138h-137zM375 527v138h137v-138h-137zM72 679v137
h137v-137h-137zM375 679v137h137v-137h-137zM223 830v138h138v-138h-138zM375 830v138h137v-138h-137zM526 830v138h138v-138h-138zM375 982v138h137v-138h-137z" />
    <glyph glyph-name="sterling" unicode="&#xa3;" 
d="M107 0v1200h643v-1200h-643zM214 107h429v986h-429v-986z" />
    <glyph glyph-name="currency" unicode="&#xa4;" 
d="M107 0v1200h643v-1200h-643zM214 107h429v986h-429v-986z" />
    <glyph glyph-name="yen" unicode="&#xa5;" 
d="M107 0v1200h643v-1200h-643zM214 107h429v986h-429v-986z" />
    <glyph glyph-name="brokenbar" unicode="&#xa6;" 
d="M107 0v1200h643v-1200h-643zM214 107h429v986h-429v-986z" />
    <glyph glyph-name="section" unicode="&#xa7;" 
d="M107 0v1200h643v-1200h-643zM214 107h429v986h-429v-986z" />
    <glyph glyph-name="dieresis" unicode="&#xa8;" 
d="M107 0v1200h643v-1200h-643zM214 107h429v986h-429v-986z" />
    <glyph glyph-name="copyright" unicode="&#xa9;" 
d="M107 0v1200h643v-1200h-643zM214 107h429v986h-429v-986z" />
    <glyph glyph-name="ordfeminine" unicode="&#xaa;" 
d="M107 0v1200h643v-1200h-643zM214 107h429v986h-429v-986z" />
    <glyph glyph-name="guillemotleft" unicode="&#xab;" 
d="M107 0v1200h643v-1200h-643zM214 107h429v986h-429v-986z" />
    <glyph glyph-name="logicalnot" unicode="&#xac;" 
d="M107 0v1200h643v-1200h-643zM214 107h429v986h-429v-986z" />
    <glyph glyph-name="registered" unicode="&#xae;" 
d="M107 0v1200h643v-1200h-643zM214 107h429v986h-429v-986z" />
    <glyph glyph-name="macron" unicode="&#xaf;" 
d="M107 0v1200h643v-1200h-643zM214 107h429v986h-429v-986z" />
    <glyph glyph-name="macron" unicode="&#x2c9;" 
d="M107 0v1200h643v-1200h-643zM214 107h429v986h-429v-986z" />
    <glyph glyph-name="degree" unicode="&#xb0;" 
d="M107 0v1200h643v-1200h-643zM214 107h429v986h-429v-986z" />
    <glyph glyph-name="plusminus" unicode="&#xb1;" 
d="M107 0v1200h643v-1200h-643zM214 107h429v986h-429v-986z" />
    <glyph glyph-name="twosuperior" unicode="&#xb2;" 
d="M107 0v1200h643v-1200h-643zM214 107h429v986h-429v-986z" />
    <glyph glyph-name="threesuperior" unicode="&#xb3;" 
d="M107 0v1200h643v-1200h-643zM214 107h429v986h-429v-986z" />
    <glyph glyph-name="acute" unicode="&#xb4;" 
d="M107 0v1200h643v-1200h-643zM214 107h429v986h-429v-986z" />
    <glyph glyph-name="mu1" unicode="&#xb5;" 
d="M107 0v1200h643v-1200h-643zM214 107h429v986h-429v-986z" />
    <glyph glyph-name="mu1" unicode="&#x3bc;" 
d="M107 0v1200h643v-1200h-643zM214 107h429v986h-429v-986z" />
    <glyph glyph-name="paragraph" unicode="&#xb6;" 
d="M107 0v1200h643v-1200h-643zM214 107h429v986h-429v-986z" />
    <glyph glyph-name="periodcentered" unicode="&#xb7;" 
d="M107 0v1200h643v-1200h-643zM214 107h429v986h-429v-986z" />
    <glyph glyph-name="periodcentered" unicode="&#x2219;" 
d="M107 0v1200h643v-1200h-643zM214 107h429v986h-429v-986z" />
    <glyph glyph-name="cedilla" unicode="&#xb8;" 
d="M107 0v1200h643v-1200h-643zM214 107h429v986h-429v-986z" />
    <glyph glyph-name="onesuperior" unicode="&#xb9;" 
d="M107 0v1200h643v-1200h-643zM214 107h429v986h-429v-986z" />
    <glyph glyph-name="ordmasculine" unicode="&#xba;" 
d="M107 0v1200h643v-1200h-643zM214 107h429v986h-429v-986z" />
    <glyph glyph-name="guillemotright" unicode="&#xbb;" 
d="M107 0v1200h643v-1200h-643zM214 107h429v986h-429v-986z" />
    <glyph glyph-name="onequarter" unicode="&#xbc;" 
d="M107 0v1200h643v-1200h-643zM214 107h429v986h-429v-986z" />
    <glyph glyph-name="onehalf" unicode="&#xbd;" 
d="M107 0v1200h643v-1200h-643zM214 107h429v986h-429v-986z" />
    <glyph glyph-name="threequarters" unicode="&#xbe;" 
d="M107 0v1200h643v-1200h-643zM214 107h429v986h-429v-986z" />
    <glyph glyph-name="questiondown" unicode="&#xbf;" 
d="M107 0v1200h643v-1200h-643zM214 107h429v986h-429v-986z" />
    <glyph glyph-name="Agrave" unicode="&#xc0;" 
d="M107 0v1200h643v-1200h-643zM214 107h429v986h-429v-986z" />
    <glyph glyph-name="Aacute" unicode="&#xc1;" 
d="M107 0v1200h643v-1200h-643zM214 107h429v986h-429v-986z" />
    <glyph glyph-name="Acircumflex" unicode="&#xc2;" 
d="M107 0v1200h643v-1200h-643zM214 107h429v986h-429v-986z" />
    <glyph glyph-name="Atilde" unicode="&#xc3;" 
d="M107 0v1200h643v-1200h-643zM214 107h429v986h-429v-986z" />
    <glyph glyph-name="Adieresis" unicode="&#xc4;" 
d="M107 0v1200h643v-1200h-643zM214 107h429v986h-429v-986z" />
    <glyph glyph-name="Aring" unicode="&#xc5;" 
d="M107 0v1200h643v-1200h-643zM214 107h429v986h-429v-986z" />
    <glyph glyph-name="AE" unicode="&#xc6;" 
d="M107 0v1200h643v-1200h-643zM214 107h429v986h-429v-986z" />
    <glyph glyph-name="Ccedilla" unicode="&#xc7;" 
d="M107 0v1200h643v-1200h-643zM214 107h429v986h-429v-986z" />
    <glyph glyph-name="Egrave" unicode="&#xc8;" 
d="M107 0v1200h643v-1200h-643zM214 107h429v986h-429v-986z" />
    <glyph glyph-name="Eacute" unicode="&#xc9;" 
d="M107 0v1200h643v-1200h-643zM214 107h429v986h-429v-986z" />
    <glyph glyph-name="Ecircumflex" unicode="&#xca;" 
d="M107 0v1200h643v-1200h-643zM214 107h429v986h-429v-986z" />
    <glyph glyph-name="Edieresis" unicode="&#xcb;" 
d="M107 0v1200h643v-1200h-643zM214 107h429v986h-429v-986z" />
    <glyph glyph-name="Igrave" unicode="&#xcc;" 
d="M107 0v1200h643v-1200h-643zM214 107h429v986h-429v-986z" />
    <glyph glyph-name="Iacute" unicode="&#xcd;" 
d="M107 0v1200h643v-1200h-643zM214 107h429v986h-429v-986z" />
    <glyph glyph-name="Icircumflex" unicode="&#xce;" 
d="M107 0v1200h643v-1200h-643zM214 107h429v986h-429v-986z" />
    <glyph glyph-name="Idieresis" unicode="&#xcf;" 
d="M107 0v1200h643v-1200h-643zM214 107h429v986h-429v-986z" />
    <glyph glyph-name="Eth" unicode="&#xd0;" 
d="M107 0v1200h643v-1200h-643zM214 107h429v986h-429v-986z" />
    <glyph glyph-name="Ntilde" unicode="&#xd1;" 
d="M107 0v1200h643v-1200h-643zM214 107h429v986h-429v-986z" />
    <glyph glyph-name="Ograve" unicode="&#xd2;" 
d="M107 0v1200h643v-1200h-643zM214 107h429v986h-429v-986z" />
    <glyph glyph-name="Oacute" unicode="&#xd3;" 
d="M107 0v1200h643v-1200h-643zM214 107h429v986h-429v-986z" />
    <glyph glyph-name="Ocircumflex" unicode="&#xd4;" 
d="M107 0v1200h643v-1200h-643zM214 107h429v986h-429v-986z" />
    <glyph glyph-name="Otilde" unicode="&#xd5;" 
d="M107 0v1200h643v-1200h-643zM214 107h429v986h-429v-986z" />
    <glyph glyph-name="Odieresis" unicode="&#xd6;" 
d="M107 0v1200h643v-1200h-643zM214 107h429v986h-429v-986z" />
    <glyph glyph-name="multiply" unicode="&#xd7;" 
d="M107 0v1200h643v-1200h-643zM214 107h429v986h-429v-986z" />
    <glyph glyph-name="Oslash" unicode="&#xd8;" 
d="M107 0v1200h643v-1200h-643zM214 107h429v986h-429v-986z" />
    <glyph glyph-name="Ugrave" unicode="&#xd9;" 
d="M107 0v1200h643v-1200h-643zM214 107h429v986h-429v-986z" />
    <glyph glyph-name="Uacute" unicode="&#xda;" 
d="M107 0v1200h643v-1200h-643zM214 107h429v986h-429v-986z" />
    <glyph glyph-name="Ucircumflex" unicode="&#xdb;" 
d="M107 0v1200h643v-1200h-643zM214 107h429v986h-429v-986z" />
    <glyph glyph-name="Udieresis" unicode="&#xdc;" 
d="M107 0v1200h643v-1200h-643zM214 107h429v986h-429v-986z" />
    <glyph glyph-name="Yacute" unicode="&#xdd;" 
d="M107 0v1200h643v-1200h-643zM214 107h429v986h-429v-986z" />
    <glyph glyph-name="Thorn" unicode="&#xde;" 
d="M107 0v1200h643v-1200h-643zM214 107h429v986h-429v-986z" />
    <glyph glyph-name="germandbls" unicode="&#xdf;" 
d="M107 0v1200h643v-1200h-643zM214 107h429v986h-429v-986z" />
    <glyph glyph-name="agrave" unicode="&#xe0;" 
d="M107 0v1200h643v-1200h-643zM214 107h429v986h-429v-986z" />
    <glyph glyph-name="aacute" unicode="&#xe1;" 
d="M107 0v1200h643v-1200h-643zM214 107h429v986h-429v-986z" />
    <glyph glyph-name="acircumflex" unicode="&#xe2;" 
d="M107 0v1200h643v-1200h-643zM214 107h429v986h-429v-986z" />
    <glyph glyph-name="atilde" unicode="&#xe3;" 
d="M107 0v1200h643v-1200h-643zM214 107h429v986h-429v-986z" />
    <glyph glyph-name="adieresis" unicode="&#xe4;" 
d="M107 0v1200h643v-1200h-643zM214 107h429v986h-429v-986z" />
    <glyph glyph-name="aring" unicode="&#xe5;" 
d="M107 0v1200h643v-1200h-643zM214 107h429v986h-429v-986z" />
    <glyph glyph-name="ae" unicode="&#xe6;" 
d="M107 0v1200h643v-1200h-643zM214 107h429v986h-429v-986z" />
    <glyph glyph-name="ccedilla" unicode="&#xe7;" 
d="M107 0v1200h643v-1200h-643zM214 107h429v986h-429v-986z" />
    <glyph glyph-name="egrave" unicode="&#xe8;" 
d="M107 0v1200h643v-1200h-643zM214 107h429v986h-429v-986z" />
    <glyph glyph-name="eacute" unicode="&#xe9;" 
d="M107 0v1200h643v-1200h-643zM214 107h429v986h-429v-986z" />
    <glyph glyph-name="ecircumflex" unicode="&#xea;" 
d="M107 0v1200h643v-1200h-643zM214 107h429v986h-429v-986z" />
    <glyph glyph-name="edieresis" unicode="&#xeb;" 
d="M107 0v1200h643v-1200h-643zM214 107h429v986h-429v-986z" />
    <glyph glyph-name="igrave" unicode="&#xec;" 
d="M107 0v1200h643v-1200h-643zM214 107h429v986h-429v-986z" />
    <glyph glyph-name="iacute" unicode="&#xed;" 
d="M107 0v1200h643v-1200h-643zM214 107h429v986h-429v-986z" />
    <glyph glyph-name="icircumflex" unicode="&#xee;" 
d="M107 0v1200h643v-1200h-643zM214 107h429v986h-429v-986z" />
    <glyph glyph-name="idieresis" unicode="&#xef;" 
d="M107 0v1200h643v-1200h-643zM214 107h429v986h-429v-986z" />
    <glyph glyph-name="eth" unicode="&#xf0;" 
d="M107 0v1200h643v-1200h-643zM214 107h429v986h-429v-986z" />
    <glyph glyph-name="ntilde" unicode="&#xf1;" 
d="M107 0v1200h643v-1200h-643zM214 107h429v986h-429v-986z" />
    <glyph glyph-name="ograve" unicode="&#xf2;" 
d="M107 0v1200h643v-1200h-643zM214 107h429v986h-429v-986z" />
    <glyph glyph-name="oacute" unicode="&#xf3;" 
d="M107 0v1200h643v-1200h-643zM214 107h429v986h-429v-986z" />
    <glyph glyph-name="ocircumflex" unicode="&#xf4;" 
d="M107 0v1200h643v-1200h-643zM214 107h429v986h-429v-986z" />
    <glyph glyph-name="otilde" unicode="&#xf5;" 
d="M107 0v1200h643v-1200h-643zM214 107h429v986h-429v-986z" />
    <glyph glyph-name="odieresis" unicode="&#xf6;" 
d="M107 0v1200h643v-1200h-643zM214 107h429v986h-429v-986z" />
    <glyph glyph-name="divide" unicode="&#xf7;" 
d="M107 0v1200h643v-1200h-643zM214 107h429v986h-429v-986z" />
    <glyph glyph-name="oslash" unicode="&#xf8;" 
d="M107 0v1200h643v-1200h-643zM214 107h429v986h-429v-986z" />
    <glyph glyph-name="ugrave" unicode="&#xf9;" 
d="M107 0v1200h643v-1200h-643zM214 107h429v986h-429v-986z" />
    <glyph glyph-name="uacute" unicode="&#xfa;" 
d="M107 0v1200h643v-1200h-643zM214 107h429v986h-429v-986z" />
    <glyph glyph-name="ucircumflex" unicode="&#xfb;" 
d="M107 0v1200h643v-1200h-643zM214 107h429v986h-429v-986z" />
    <glyph glyph-name="udieresis" unicode="&#xfc;" 
d="M107 0v1200h643v-1200h-643zM214 107h429v986h-429v-986z" />
    <glyph glyph-name="yacute" unicode="&#xfd;" 
d="M107 0v1200h643v-1200h-643zM214 107h429v986h-429v-986z" />
    <glyph glyph-name="thorn" unicode="&#xfe;" 
d="M107 0v1200h643v-1200h-643zM214 107h429v986h-429v-986z" />
    <glyph glyph-name="ydieresis" unicode="&#xff;" 
d="M107 0v1200h643v-1200h-643zM214 107h429v986h-429v-986z" />
    <glyph glyph-name="glyph192" 
 />
    <glyph glyph-name="glyph193" 
 />
    <glyph glyph-name="glyph98" 
d="M223 73v137h138v-137h-138zM375 73v137h137v-137h-137zM526 73v137h138v-137h-138zM72 224v137h137v-137h-137zM678 224v138h138v-138h-138zM72 375v138h137v-138h-137zM678 376v138h138v-138h-138zM72 527v138h137v-138h-137zM223 527v138h138v-138h-138zM375 527v138
h137v-138h-137zM526 527v138h138v-138h-138zM678 527v138h138v-138h-138zM72 678v138h137v-138h-137zM678 679v138h138v-138h-138zM72 830v138h137v-138h-137zM678 830v138h138v-138h-138zM223 982v138h138v-138h-138zM375 982v138h137v-138h-137zM526 982v138h138v-138
h-138z" />
    <glyph glyph-name="glyph99" 
d="M375 73v137h137v-137h-137zM526 73v137h138v-137h-138zM678 73v137h138v-137h-138zM223 224v138h138v-138h-138zM72 375v138h137v-138h-137zM223 375v138h138v-138h-138zM375 376v138h137v-138h-137zM526 376v138h138v-138h-138zM223 527v138h138v-138h-138zM72 679v137
h137v-137h-137zM223 679v137h138v-137h-138zM375 679v137h137v-137h-137zM526 679v138h138v-138h-138zM223 830v138h138v-138h-138zM375 982v138h137v-138h-137zM526 982v138h138v-138h-138zM678 982v138h138v-138h-138z" />
    <glyph glyph-name="glyph100" 
d="M72 73v137h137v-137h-137zM223 73v137h138v-137h-138zM375 73v137h137v-137h-137zM526 73v137h138v-137h-138zM678 73v137h138v-137h-138zM223 527v138h138v-138h-138zM375 527v138h137v-138h-137zM526 527v138h138v-138h-138zM72 982v138h137v-138h-137zM223 982v138
h138v-138h-138zM375 982v138h137v-138h-137zM526 982v138h138v-138h-138zM678 982v138h138v-138h-138z" />
    <glyph glyph-name="glyph101" 
d="M375 73v137h138v-137h-138zM375 224v138h138v-138h-138zM375 376v138h138v-138h-138z" />
    <glyph glyph-name="glyph102" 
d="M224 73v137h137v-137h-137zM375 224v138h138v-138h-138zM375 376v138h138v-138h-138zM224 527v138h137v-138h-137zM375 527v138h138v-138h-138zM527 527v138h137v-138h-137zM375 679v137h137v-137h-137zM375 830v138h137v-138h-137zM526 982v138h138v-138h-138z" />
    <glyph glyph-name="glyph103" 
d="M224 73v137h137v-137h-137zM527 73v137h138v-137h-138zM224 224v138h137v-138h-137zM526 224v138h139v-138h-139zM224 376v138h137v-138h-137zM526 376v138h139v-138h-139z" />
    <glyph glyph-name="glyph104" 
d="M72 73v137h138v-137h-138zM375 73v137h138v-137h-138zM678 73v137h138v-137h-138z" />
    <glyph glyph-name="glyph105" 
d="M375 224v138h138v-138h-138zM375 376v138h138v-138h-138zM375 527v138h138v-138h-138zM224 679v137h137v-137h-137zM375 679v138h138v-138h-138zM527 679v138h137v-138h-137zM375 830v139h137v-139h-137z" />
    <glyph glyph-name="glyph106" 
d="M375 224v138h138v-138h-138zM224 376v138h137v-138h-137zM375 376v138h138v-138h-138zM527 376v138h137v-138h-137zM375 527v138h138v-138h-138zM224 679v137h137v-137h-137zM375 679v137h137v-137h-137zM526 679v138h138v-138h-138zM375 830v139h137v-139h-137z" />
    <glyph glyph-name="glyph107" 
d="M375 73v137h138v-137h-138zM375 224v138h137v-138h-137zM375 376v138h137v-138h-137zM223 527v138h138v-138h-138zM375 527v138h137v-138h-137zM526 527v138h138v-138h-138zM72 679v137h137v-137h-137zM375 679v137h137v-137h-137zM678 679v138h138v-138h-138zM72 830
v138h137v-138h-137zM375 830v138h137v-138h-137zM678 830v138h138v-138h-138zM72 982v138h137v-138h-137zM375 982v138h137v-138h-137zM678 982v138h138v-138h-138z" />
    <glyph glyph-name="glyph108" 
d="M72 73v137h137v-137h-137zM223 73v137h138v-137h-138zM526 73v137h138v-137h-138zM678 73v137h138v-137h-138zM223 224v138h138v-138h-138zM526 224v138h138v-138h-138zM72 375v138h137v-138h-137zM678 376v138h138v-138h-138zM72 527v138h137v-138h-137zM678 527v138
h138v-138h-138zM72 679v137h137v-137h-137zM678 679v138h138v-138h-138zM72 830v138h137v-138h-137zM678 830v138h138v-138h-138zM223 982v138h138v-138h-138zM375 982v138h137v-138h-137zM526 982v138h138v-138h-138z" />
    <glyph glyph-name="glyph109" 
d="M72 73v137h137v-137h-137zM223 73v137h138v-137h-138zM375 73v137h137v-137h-137zM526 73v137h138v-137h-138zM678 224v138h138v-138h-138zM223 375v138h138v-138h-138zM375 376v138h137v-138h-137zM526 376v138h138v-138h-138zM72 527v138h137v-138h-137zM223 679v137
h138v-137h-138zM375 679v137h137v-137h-137zM526 679v138h138v-138h-138zM375 830v138h137v-138h-137zM223 982v138h138v-138h-138zM526 982v138h138v-138h-138z" />
    <glyph glyph-name="glyph110" 
d="M527 224v138h137v-138h-137zM375 376v138h137v-138h-137zM526 376v138h138v-138h-138zM224 527v138h137v-138h-137zM375 527v138h137v-138h-137zM526 527v138h138v-138h-138zM375 679v138h137v-138h-137zM526 679v138h138v-138h-138zM526 830v139h138v-139h-138z" />
    <glyph glyph-name="glyph111" 
d="M210 969v-138h-138v138h138zM210 817v-138h-138v138h138zM210 665v-138h-138v138h138zM210 514v-138h-138v138h138zM210 362v-138h-138v138h138zM361 1120v-138h-137v138h137zM361 211v-138h-137v138h137zM513 969v-138h-138v138h138zM513 817v-138h-138v138h138z
M513 665v-138h-138v138h138zM513 514v-138h-138v138h138zM513 362v-138h-138v138h138zM665 1120v-138h-138v138h138zM665 665v-138h-138v138h138zM665 211v-138h-138v138h138zM816 1120v-138h-138v138h138zM816 665v-138h-138v138h138zM816 211v-138h-138v138h138z" />
    <glyph glyph-name="glyph112" 
d="M72 73v137h137v-137h-137zM223 73v137h138v-137h-138zM375 73v137h137v-137h-137zM526 73v137h138v-137h-138zM678 73v137h138v-137h-138zM72 224v138h137v-138h-137zM72 375v138h137v-138h-137zM678 376v138h138v-138h-138zM72 527v138h137v-138h-137zM526 527v138h138
v-138h-138zM72 679v137h137v-137h-137zM375 679v137h137v-137h-137zM72 830v138h137v-138h-137zM223 830v138h138v-138h-138zM72 981v139h137v-139h-137zM223 982v138h138v-138h-138zM375 982v138h137v-138h-137zM526 982v138h138v-138h-138zM678 982v138h138v-138h-138z
" />
    <glyph glyph-name="glyph113" 
d="M72 73v137h137v-137h-137zM223 73v137h138v-137h-138zM375 73v137h137v-137h-137zM526 73v137h138v-137h-138zM678 73v137h138v-137h-138zM678 224v138h138v-138h-138zM72 375v138h137v-138h-137zM678 376v138h138v-138h-138zM223 527v138h138v-138h-138zM678 527v138
h138v-138h-138zM375 679v137h137v-137h-137zM678 679v138h138v-138h-138zM526 830v138h138v-138h-138zM678 830v138h138v-138h-138zM72 981v139h137v-139h-137zM223 981v139h138v-139h-138zM375 982v138h137v-138h-137zM526 982v138h138v-138h-138zM678 982v138h138v-138
h-138z" />
    <glyph glyph-name="glyph114" 
d="M72 73v137h137v-137h-137zM223 73v137h138v-137h-138zM375 224v138h138v-138h-138zM375 376v138h138v-138h-138zM72 527v138h137v-138h-137zM223 527v138h138v-138h-138zM375 527v138h138v-138h-138zM526 527v138h138v-138h-138zM678 527v138h138v-138h-138zM375 679v137
h137v-137h-137zM375 830v138h137v-138h-137zM72 982v138h137v-138h-137zM223 982v138h138v-138h-138z" />
    <glyph glyph-name="glyph115" 
d="M526 73v137h138v-137h-138zM678 73v137h138v-137h-138zM375 224v138h137v-138h-137zM375 376v138h137v-138h-137zM72 527v138h137v-138h-137zM223 527v138h138v-138h-138zM375 527v138h137v-138h-137zM526 527v138h138v-138h-138zM678 527v138h138v-138h-138zM375 679
v137h137v-137h-137zM375 830v138h137v-138h-137zM526 982v138h138v-138h-138zM678 982v138h138v-138h-138z" />
    <glyph glyph-name="glyph116" 
d="M375 679v138h138v-138h-138zM527 679v138h137v-138h-137zM375 830v138h138v-138h-138zM526 982v138h138v-138h-138z" />
    <glyph glyph-name="glyph117" 
d="M224 679v138h137v-138h-137zM375 831v137h138v-137h-138zM224 982v138h137v-138h-137zM375 982v138h138v-138h-138z" />
    <glyph glyph-name="glyph118" 
d="M72 679v137h138v-137h-138zM223 679v138h138v-138h-138zM526 679v138h138v-138h-138zM678 679v138h138v-138h-138zM72 830v138h138v-138h-138zM526 830v138h138v-138h-138zM223 982v138h138v-138h-138zM678 982v138h138v-138h-138z" />
    <glyph glyph-name="glyph119" 
d="M72 679v137h138v-137h-138zM526 679v138h138v-138h-138zM223 830v138h138v-138h-138zM678 831v137h138v-137h-138zM72 982v138h138v-138h-138zM223 982v138h138v-138h-138zM526 982v138h138v-138h-138zM678 982v138h138v-138h-138z" />
    <glyph glyph-name="glyph120" 
d="M375 376v138h138v-138h-138zM224 527v138h137v-138h-137zM375 527v138h138v-138h-138zM527 527v138h138v-138h-138zM375 679v138h138v-138h-138z" />
    <glyph glyph-name="glyph121" 
d="M107 0v1200h643v-1200h-643zM214 107h429v986h-429v-986z" />
    <glyph glyph-name="glyph122" 
d="M107 0v1200h643v-1200h-643zM214 107h429v986h-429v-986z" />
    <glyph glyph-name="glyph123" 
d="M107 0v1200h643v-1200h-643zM214 107h429v986h-429v-986z" />
    <glyph glyph-name="glyph124" 
d="M107 0v1200h643v-1200h-643zM214 107h429v986h-429v-986z" />
    <glyph glyph-name="glyph125" 
d="M107 0v1200h643v-1200h-643zM214 107h429v986h-429v-986z" />
    <glyph glyph-name="glyph126" 
d="M107 0v1200h643v-1200h-643zM214 107h429v986h-429v-986z" />
    <glyph glyph-name="glyph127" 
d="M107 0v1200h643v-1200h-643zM214 107h429v986h-429v-986z" />
    <glyph glyph-name="glyph128" 
d="M107 0v1200h643v-1200h-643zM214 107h429v986h-429v-986z" />
    <glyph glyph-name="glyph129" 
d="M107 0v1200h643v-1200h-643zM214 107h429v986h-429v-986z" />
    <glyph glyph-name="glyph130" 
d="M107 0v1200h643v-1200h-643zM214 107h429v986h-429v-986z" />
    <glyph glyph-name="glyph131" 
 />
    <glyph glyph-name="glyph144" 
d="M107 0v1200h643v-1200h-643zM214 107h429v986h-429v-986z" />
    <glyph glyph-name="Euro" unicode="&#x20ac;" 
d="M375 73v137h137v-137h-137zM526 73v137h138v-137h-138zM678 73v137h138v-137h-138zM223 224v138h138v-138h-138zM72 375v138h137v-138h-137zM223 375v138h138v-138h-138zM375 376v138h137v-138h-137zM526 376v138h138v-138h-138zM223 527v138h138v-138h-138zM72 679v137
h137v-137h-137zM223 679v137h138v-137h-138zM375 679v137h137v-137h-137zM526 679v138h138v-138h-138zM223 830v138h138v-138h-138zM375 982v138h137v-138h-137zM526 982v138h138v-138h-138zM678 982v138h138v-138h-138z" />
  </font>
</defs>
</svg>
