<svg xmlns="http://www.w3.org/2000/svg" width="288" height="140"><path fill="#E31D25" d="M96.51 70.32c11.67-20.57 23.55-41.03 35.55-61.4-6.1 16.65-12.32 33.26-18.46 49.9 4.64-.12 9.27-.46 13.92-.62-4.95 7.43-9.72 14.99-14.8 22.34 1.54.27 3.06.62 4.57 1.01-12.04 17.18-23.64 34.67-35.85 51.73 5.23-14.44 11.19-28.61 17-42.83l-4.54-.21c3.85-6.77 8.07-13.31 12.11-19.96-3.17-.04-6.34.07-9.5.04z"/><path fill="#010101" d="M128.61 71.19c3.91-7.34 8.35-14.4 12.36-21.69 0 12.83-.02 25.65-.01 38.48.13 5.5-2.9 11.08-7.9 13.56-7.13 3.48-15.98 2.32-22.37-2.22 2.25-3.17 4.43-6.4 6.59-9.64 1.91 1.14 3.82 2.74 6.18 2.66 2.31-.4 4.7-2.03 4.82-4.58.45-5.51-.24-11.07.33-16.57zM53.21 63.7c10.06-12.64 32.07-12.01 41.21 1.42-.98 3.8-3.24 7.1-4.93 10.6 2.53.04 5.05.09 7.58.08-5.27 8.76-10.11 17.76-15.23 26.6-9.16 2.79-19.97 1.06-26.85-5.9-8.9-8.35-9.6-23.48-1.78-32.8zm14.8 3.84c-8.54 3.86-9.02 17.29-1.34 22.28 4.55 3.1 11.31 2.54 15.04-1.61 4.08-3.92 4.45-10.59 2-15.47-2.83-5.55-10.12-8.11-15.7-5.2zM13.13 55.52c4.36.01 8.73.08 13.09.02-.14 11.92-.04 23.86-.05 35.78 7.63-.01 15.25-.02 22.88 0-.07 3.78-.15 7.57-.09 11.35-11.73-.2-23.46.03-35.19-.11l-.6-.57c-.06-15.49.03-30.98-.04-46.47zM158.65 56.46c4.23-.06 8.46-.04 12.7-.06 6.52 15.4 12.91 30.86 19.56 46.2-4.64.02-9.28-.04-13.92-.02-1.08-2.72-2.18-5.43-3.26-8.15-5.9.04-11.79.04-17.68.01-1.04 2.73-2.12 5.44-3.18 8.15-4.52.02-9.03-.01-13.54 0 6.29-15.44 13.24-30.61 19.32-46.13zm1.18 28.13c3.41.01 6.83.02 10.24.01-1.74-4.28-3.33-8.63-5.22-12.85-1.65 4.29-3.31 8.57-5.02 12.84zM195.11 60.66c10.21-7.76 27.02-6.54 34.57 4.36-2.63 3.08-6.23 5.1-9.23 7.79-2.9-2.93-6.46-6.16-10.95-5.46-7.62.38-12.02 9.4-9.72 16.16 1.03 4.85 5.65 8.82 10.72 8.31 4.19.44 7.42-2.6 10.01-5.46 3.29 2.22 6.52 4.55 9.79 6.81-7.88 12.84-28.11 14.08-38.03 3.05-9.27-9.84-8.03-27.39 2.84-35.56zM232.29 56.64c4.29.02 8.58 0 12.87-.1.05 6.17-.11 12.34.09 18.51 5.28-5.98 10.33-12.16 15.49-18.23 5.17-.45 10.37-.12 15.55-.16-5.91 6.47-11.54 13.19-17.48 19.63 5.81 8.85 11.97 17.48 17.89 26.26-5.2.07-10.39.02-15.59.04-3.64-5.7-7.35-11.37-11.39-16.79-1.52 1.74-3.31 3.29-4.48 5.3-.24 3.82-.04 7.66-.08 11.49-4.31.02-8.62-.01-12.93.01.11-15.32.01-30.64.06-45.96z"/></svg>